# xmcd CD database file
#
# Track frame offsets:
#	150
#	13238
#	25372
#	39878
#	55447
#	70649
#	83200
#	96816
#	109095
#	125190
#	143348
#	158954
#	168428
#	181702
#	197046
#	211905
#	227614
#	240726
#	260454
#
# Disc length: 3666 seconds
#
# Revision: 0
# Processed by: cddbd v1.5.2PL0 Copyright (c) Steve Scherf et al.
# Submitted via: CDex 1.50
#
DISCID=fd0e5013
DTITLE=Haras do Forro - A Pegada Quente
DYEAR=2009
DGENRE=Country
TTITLE0=Forro Do Haras
TTITLE1=Vem Seu Safadinho
TTITLE2=Chupa Que E De Uva
TTITLE3=Tome Tome
TTITLE4=Amor A Primeira Vista
TTITLE5=Ela So Quer Me Ter
TTITLE6=Ela E Mesmo Demais
TTITLE7=Cabare Ambulante
TTITLE8=Beber Cair E Levantar
TTITLE9=Voce Nao Vale Nada
TTITLE10=Nossa Historia Nosso Amor
TTITLE11=To Dando Pra Chupar
TTITLE12=Rapadura Nela
TTITLE13=Mulherada
TTITLE14=Dor Da Solidao
TTITLE15=Abra O Jogo
TTITLE16=Voce So Me Fez Chorar
TTITLE17=Sentimentos
TTITLE18=Pegou Na Veia
EXTD=YEAR: 2009
EXTT0=
EXTT1=
EXTT2=
EXTT3=
EXTT4=
EXTT5=
EXTT6=
EXTT7=
EXTT8=
EXTT9=
EXTT10=
EXTT11=
EXTT12=
EXTT13=
EXTT14=
EXTT15=
EXTT16=
EXTT17=
EXTT18=
PLAYORDER=
